HIERARCHY
ROOT Hips
{
	OFFSET 0.000000 0.000000 0.000000
	CHANNELS 6 Xposition Yposition Zposition Zrotation Yrotation Xrotation 
	JOINT LHipJoint
	{
		OFFSET 0.000000 0.000000 0.000000
		CHANNELS 3 Zrotation Yrotation Xrotation
		JOINT LeftUpLeg
		{
			OFFSET 1.363060 -1.794630 0.839290
			CHANNELS 3 Zrotation Yrotation Xrotation
			JOINT LeftLeg
			{
				OFFSET 2.448110 -6.726130 0.000000
				CHANNELS 3 Zrotation Yrotation Xrotation
				JOINT LeftFoot
				{
					OFFSET 2.562200 -7.039590 0.000000
					CHANNELS 3 Zrotation Yrotation Xrotation
					JOINT LeftToeBase
					{
						OFFSET 0.157640 -0.433110 2.322550
						CHANNELS 3 Zrotation Yrotation Xrotation
						End Site
						{
							OFFSET 0.000000 0.000000 0.000000
						}
					}
				}
			}
		}
	}
	JOINT RHipJoint
	{
		OFFSET 0.000000 0.000000 0.000000
		CHANNELS 3 Zrotation Yrotation Xrotation
		JOINT RightUpLeg
		{
			OFFSET -1.305520 -1.794630 0.839290
			CHANNELS 3 Zrotation Yrotation Xrotation
			JOINT RightLeg
			{
				OFFSET -2.542530 -6.985550 0.000000
				CHANNELS 3 Zrotation Yrotation Xrotation
				JOINT RightFoot
				{
					OFFSET -2.568260 -7.056230 0.000000
					CHANNELS 3 Zrotation Yrotation Xrotation
					JOINT RightToeBase
					{
						OFFSET -0.164730 -0.452590 2.363150
						CHANNELS 3 Zrotation Yrotation Xrotation
						End Site
						{
							OFFSET 0.000000 0.000000 0.000000
						}
					}
				}
			}
		}
	}
	JOINT LowerBack
	{
		OFFSET 0.000000 0.000000 0.000000
		CHANNELS 3 Zrotation Yrotation Xrotation
		JOINT Spine
		{
			OFFSET 0.028270 2.035590 -0.193380
			CHANNELS 3 Zrotation Yrotation Xrotation
			JOINT Spine1
			{
				OFFSET 0.056720 2.048850 -0.042750
				CHANNELS 3 Zrotation Yrotation Xrotation
				JOINT Neck
				{
					OFFSET 0.000000 0.000000 0.000000
					CHANNELS 3 Zrotation Yrotation Xrotation
					JOINT Neck1
					{
						OFFSET -0.054170 1.746240 0.172020
						CHANNELS 3 Zrotation Yrotation Xrotation
						JOINT Head
						{
							OFFSET 0.104070 1.761360 -0.123970
							CHANNELS 3 Zrotation Yrotation Xrotation
							End Site
							{
								OFFSET 0.000000 0.000000 0.000000
							}
						}
					}
				}
				JOINT LeftShoulder
				{
					OFFSET 0.000000 0.000000 0.000000
					CHANNELS 3 Zrotation Yrotation Xrotation
					JOINT LeftArm
					{
						OFFSET 3.362410 1.200890 -0.311210
						CHANNELS 3 Zrotation Yrotation Xrotation
						JOINT LeftForeArm
						{
							OFFSET 4.983000 -0.000000 -0.000000
							CHANNELS 3 Zrotation Yrotation Xrotation
							JOINT LeftHand
							{
								OFFSET 3.483560 -0.000000 -0.000000
								CHANNELS 3 Zrotation Yrotation Xrotation
								JOINT LeftFingerBase
								{
									OFFSET 0.000000 0.000000 0.000000
									CHANNELS 3 Zrotation Yrotation Xrotation
									JOINT LeftHandIndex1
									{
										OFFSET 0.715260 -0.000000 -0.000000
										CHANNELS 3 Zrotation Yrotation Xrotation
										End Site
										{
											OFFSET 0.000000 0.000000 0.000000
										}
									}
								}
								JOINT LThumb
								{
									OFFSET 0.000000 0.000000 0.000000
									CHANNELS 3 Zrotation Yrotation Xrotation
									End Site
									{
										OFFSET 0.000000 0.000000 0.000000
									}
								}
							}
						}
					}
				}
				JOINT RightShoulder
				{
					OFFSET 0.000000 0.000000 0.000000
					CHANNELS 3 Zrotation Yrotation Xrotation
					JOINT RightArm
					{
						OFFSET -3.136600 1.374050 -0.404650
						CHANNELS 3 Zrotation Yrotation Xrotation
						JOINT RightForeArm
						{
							OFFSET -5.241900 -0.000000 -0.000000
							CHANNELS 3 Zrotation Yrotation Xrotation
							JOINT RightHand
							{
								OFFSET -3.444170 -0.000000 -0.000000
								CHANNELS 3 Zrotation Yrotation Xrotation
								JOINT RightFingerBase
								{
									OFFSET 0.000000 0.000000 0.000000
									CHANNELS 3 Zrotation Yrotation Xrotation
									JOINT RightHandIndex1
									{
										OFFSET -0.622530 -0.000000 -0.000000
										CHANNELS 3 Zrotation Yrotation Xrotation
										End Site
										{
											OFFSET 0.000000 0.000000 0.000000
										}
									}
								}
								JOINT RThumb
								{
									OFFSET 0.000000 0.000000 0.000000
									CHANNELS 3 Zrotation Yrotation Xrotation
									End Site
									{
										OFFSET 0.000000 0.000000 0.000000
									}
								}
							}
						}
					}
				}
			}
		}
	}
}
MOTION
Frames: 12
Frame Time: 0.008333
-14.701807 17.822558 -8.414125 0.500263 30.129276 1.013611 -4.040428 1.126714 2.854260 -16.201107 -1.704623 -9.800399 -0.049202 7.793897 23.290921 1.323133 -5.943275 -2.708958 0.000100 0.075700 0.207900 2.492057 -0.802030 1.290380 17.718855 6.424388 -8.161426 -2.354157 -10.641694 31.859940 -1.387384 3.308281 -6.789972 -0.075200 -1.768900 4.867300 -3.158395 -2.296615 6.125193 0.702516 -3.141871 0.665593 1.267907 -1.713168 -3.141122 -19.469362 -17.128192 4.085348 13.053347 -23.261937 7.871744 6.257600 -11.780600 9.240000 -7.201676 -0.247603 -1.149171 -79.419687 2.372650 12.874409 12.343627 -18.003573 -2.353015 -1.749433 -2.708343 3.414205 20.015202 23.020909 9.764500 -7.125000 0.000000 0.000000 -9.062600 57.161200 -2.715100 5.358035 1.913885 -0.556440 84.512520 -7.749776 0.954893 -10.321589 15.786538 -1.561496 0.438620 -0.181708 13.064941 -13.475257 4.984752 -1.253300 7.125000 0.000000 0.000000 9.500800 -24.770200 4.707900 
-14.707768 17.827105 -8.431202 0.421927 30.219255 1.049032 -4.044211 1.123896 2.841400 -16.104022 -1.931080 -9.802474 -0.060549 7.781722 23.248764 1.326911 -5.987979 -2.591012 0.006500 0.521200 1.432100 2.498957 -0.796198 1.307108 17.687962 5.737616 -8.417138 -2.297041 -10.547833 31.549641 -1.483585 3.728146 -6.735333 -0.061900 -1.604700 4.414400 -3.001536 -2.253137 6.185160 0.701455 -3.076131 0.623647 1.176160 -1.675455 -3.279319 -19.424621 -17.137797 4.113192 13.053400 -23.276419 7.843620 6.249900 -11.786000 9.224500 -7.185006 -0.245194 -1.166727 -79.585019 2.528750 13.194449 12.528249 -18.264961 -2.428182 -1.722103 -2.730337 3.159664 19.955255 23.110867 9.763900 -7.125000 0.000000 0.000000 -9.193000 57.252200 -2.774800 5.354709 1.920429 -0.555307 84.534120 -7.626729 0.932732 -10.299224 15.745628 -1.555299 0.413550 -0.137474 13.138956 -12.722205 4.239266 -0.997700 7.125000 0.000000 0.000000 10.140300 -25.576900 4.840800 
-14.715448 17.832461 -8.447875 0.207764 30.225431 1.066765 -4.048243 1.117731 2.825294 -15.874022 -2.159620 -9.910267 -0.068474 7.785296 23.241800 1.310262 -5.872357 -2.492868 0.007800 0.568800 1.563100 2.503914 -0.789076 1.315380 17.824407 5.417168 -8.607870 -2.244207 -10.460646 31.279070 -1.520845 3.964500 -6.447731 -0.068100 -1.684100 4.633500 -2.773290 -2.201029 6.178699 0.742834 -2.991814 0.577915 1.132872 -1.630253 -3.379922 -19.381537 -17.102140 4.045243 13.014082 -23.220650 7.929502 6.234100 -11.754600 9.251600 -7.165773 -0.243931 -1.184921 -79.786899 2.683119 13.496679 12.694856 -18.494137 -2.496124 -1.682187 -2.704530 2.898932 19.786500 22.681429 9.512000 -7.125000 0.000000 0.000000 -9.187300 56.743300 -2.659900 5.352285 1.924181 -0.553702 84.467437 -7.441320 1.055166 -10.300781 15.742992 -1.554735 0.423004 -0.157214 13.225708 -13.036333 4.521839 -1.094900 7.125000 0.000000 0.000000 9.874300 -25.269500 4.781900 
-14.724542 17.841858 -8.469398 -0.055727 30.188327 1.098723 -4.056341 1.107048 2.805946 -15.607066 -2.361997 -10.107200 -0.078448 7.789309 23.228725 1.288183 -5.710508 -2.395603 0.006800 0.533700 1.466400 2.511888 -0.782014 1.313728 18.040813 5.659251 -8.640647 -2.189146 -10.377927 31.027206 -1.471598 3.798894 -6.260233 -0.060800 -1.590700 4.375800 -2.533418 -2.115435 6.124966 0.813949 -2.859920 0.543984 1.136862 -1.564291 -3.431471 -19.382518 -17.067256 4.003224 13.026194 -23.164260 7.966377 6.244400 -11.724400 9.264800 -7.145763 -0.247850 -1.195100 -80.032083 2.694908 13.796779 12.822845 -18.656855 -2.547813 -1.647336 -2.690550 2.749503 19.572241 22.423164 9.303500 -7.125000 0.000000 0.000000 -9.318500 56.414100 -2.623900 5.349953 1.933871 -0.551555 84.319597 -7.290362 1.589989 -10.438162 15.940278 -1.593763 0.458108 -0.170644 13.039403 -13.861602 4.656262 -1.203400 7.125000 0.000000 0.000000 9.222400 -25.111400 4.492400 
-14.733333 17.848022 -8.490214 -0.097183 30.284288 1.177879 -4.067580 1.091832 2.778941 -15.557991 -2.558804 -10.244540 -0.075450 7.813458 23.282884 1.285126 -5.678357 -2.404827 0.009300 0.621900 1.709100 2.518547 -0.779233 1.312803 18.035654 5.963714 -8.582505 -2.140228 -10.309229 30.807411 -1.403684 3.498379 -6.246865 -0.039700 -1.285800 3.535500 -2.514458 -2.059860 6.068872 0.872061 -2.781560 0.577149 1.233520 -1.528834 -3.317453 -19.334792 -17.073174 3.753279 12.978278 -23.133337 8.026263 6.199400 -11.692700 9.310800 -7.139870 -0.266636 -1.194629 -80.306198 2.454640 14.106577 12.898746 -18.733395 -2.576310 -1.634289 -2.714300 2.596668 19.501235 22.589618 9.329500 -7.125000 0.000000 0.000000 -9.485100 56.586600 -2.711100 5.354470 1.943454 -0.544992 84.134207 -6.985412 2.069496 -10.584767 16.152085 -1.637034 0.478378 -0.165757 12.927059 -14.297065 4.528846 -1.207400 7.125000 0.000000 0.000000 8.891800 -25.241500 4.300300 
-14.742832 17.851357 -8.510120 -0.089078 30.406766 1.251836 -4.077377 1.078551 2.748635 -15.552579 -2.839708 -10.324893 -0.067466 7.848589 23.372967 1.274335 -5.611457 -2.432060 0.014800 0.784700 2.156700 2.524367 -0.777165 1.314346 17.976748 6.185054 -8.546261 -2.099525 -10.250349 30.619308 -1.361178 3.328110 -6.158186 -0.034500 -1.198800 3.295900 -2.510382 -2.020802 6.077495 0.905767 -2.727343 0.611827 1.289488 -1.503725 -3.233468 -19.234871 -17.059353 3.539352 12.909435 -23.073992 8.034637 6.148200 -11.649200 9.313800 -7.136128 -0.287879 -1.195635 -80.532750 2.228137 14.475771 12.972371 -18.810483 -2.604436 -1.636130 -2.738860 2.369508 19.615594 22.762159 9.454100 -7.125000 0.000000 0.000000 -9.438300 56.805700 -2.747700 5.360491 1.953464 -0.534571 83.998953 -6.569526 2.164206 -10.613509 16.200041 -1.646560 0.489967 -0.234383 12.840372 -14.952023 5.814661 -1.637500 7.125000 0.000000 0.000000 8.315300 -23.843300 4.287800 
-14.755261 17.855904 -8.532755 -0.298198 30.482481 1.237418 -4.079974 1.069064 2.724122 -15.338803 -3.120401 -10.464249 -0.058755 7.887767 23.470142 1.241457 -5.398014 -2.385990 0.007600 0.563000 1.547200 2.528578 -0.770489 1.317294 18.110078 6.233473 -8.656806 -2.070911 -10.199846 30.471315 -1.394986 3.510488 -6.030665 -0.047800 -1.411600 3.882200 -2.266583 -1.971896 6.245461 0.949719 -2.648615 0.563770 1.241606 -1.457684 -3.416102 -19.023108 -17.012159 3.410721 12.634512 -22.975683 8.101055 6.023300 -11.598200 9.278200 -7.116924 -0.310060 -1.210825 -80.711873 2.252745 14.935507 13.095149 -18.971310 -2.656516 -1.629206 -2.778562 2.166590 19.676919 23.093733 9.608300 -7.125000 0.000000 0.000000 -9.542200 57.189400 -2.867000 5.358925 1.957933 -0.535771 83.908537 -6.309504 2.647809 -10.573314 16.138409 -1.632816 0.535251 -0.364830 11.952414 -16.544547 8.293124 -2.617800 7.125000 0.000000 0.000000 7.023900 -21.094300 4.055300 
-14.765972 17.861663 -8.555390 -0.455340 30.528403 1.236628 -4.082362 1.054933 2.696435 -15.201894 -3.349635 -10.621450 -0.049791 7.927206 23.569873 1.194710 -5.108900 -2.373505 0.000100 0.076800 0.211000 2.530793 -0.759122 1.322942 18.143634 6.033069 -8.908145 -2.054410 -10.162368 30.364985 -1.498168 4.020297 -5.813018 -0.056400 -1.531800 4.213400 -2.018628 -1.918989 6.445568 0.971819 -2.563463 0.509791 1.155675 -1.407697 -3.623160 -18.845778 -16.945261 3.155800 12.372415 -22.847679 8.314589 5.904700 -11.525900 9.332900 -7.100414 -0.328227 -1.231530 -80.825567 2.342762 15.466363 13.252107 -19.182773 -2.725770 -1.577184 -2.778681 1.868476 19.364865 22.931991 9.383000 -7.125000 0.000000 0.000000 -9.835300 56.946000 -2.898300 5.355964 1.967751 -0.536079 83.798822 -5.955296 2.419382 -10.528531 16.087085 -1.624409 0.509075 -0.421870 13.229832 -16.562305 9.149066 -2.894400 7.125000 0.000000 0.000000 7.004300 -20.157600 4.192700 
-14.775167 17.866312 -8.581056 -0.536790 30.558805 1.235475 -4.088868 1.043028 2.665043 -15.166832 -3.663025 -10.697610 -0.046674 7.958913 23.649330 1.121835 -4.688595 -2.387063 0.001500 -0.247500 -0.680100 2.531239 -0.747882 1.329294 18.092279 5.739582 -9.175766 -2.046985 -10.139395 30.301645 -1.598107 4.532379 -5.547897 -0.050300 -1.447600 3.981200 -1.816955 -1.888980 6.668507 0.983557 -2.508533 0.488045 1.076648 -1.375747 -3.765355 -18.673107 -16.844197 2.748825 12.182836 -22.655918 8.568189 5.811700 -11.411200 9.434700 -7.087324 -0.344452 -1.249807 -80.922775 2.376938 15.898469 13.409022 -19.392178 -2.795320 -1.524802 -2.766270 1.599378 19.037603 22.654406 9.110400 -7.125000 0.000000 0.000000 -10.084500 56.572100 -2.881300 5.349170 1.982844 -0.538575 83.731903 -5.602560 3.176462 -10.590879 16.157910 -1.639997 0.533996 -0.410657 12.627173 -16.954378 8.931871 -2.897000 7.125000 0.000000 0.000000 6.712600 -20.370100 3.983400 
-14.787899 17.869747 -8.608945 -0.594400 30.686065 1.243231 -4.100774 1.038276 2.635570 -15.114187 -4.119106 -10.683333 -0.052876 7.970612 23.672968 1.068322 -4.405727 -2.328797 0.000300 0.111300 0.305700 2.531579 -0.739942 1.330233 18.079121 5.656292 -9.362455 -2.045799 -10.134445 30.290637 -1.624187 4.673669 -5.448263 -0.050800 -1.454300 3.999800 -1.682487 -1.876887 6.898240 1.015671 -2.480328 0.486207 1.073850 -1.359744 -3.864657 -18.555070 -16.754488 2.343061 12.037879 -22.474824 8.774684 5.738500 -11.302500 9.531600 -7.079354 -0.365821 -1.260084 -81.098548 2.274336 16.187150 13.508979 -19.507311 -2.837040 -1.501796 -2.744566 1.574206 18.863855 22.389402 8.924800 -7.125000 0.000000 0.000000 -10.157200 56.243300 -2.821200 5.344166 2.001962 -0.540348 83.631540 -5.269348 3.960485 -10.753664 16.389970 -1.690010 0.549382 -0.411938 11.708571 -17.233893 9.186405 -3.030800 7.125000 0.000000 0.000000 6.503100 -20.081200 3.899800 
-14.801743 17.871162 -8.636329 -0.616065 30.886817 1.278285 -4.113912 1.029536 2.605765 -15.081444 -4.483210 -10.721612 -0.057727 7.980635 23.692205 1.035091 -4.238115 -2.265145 0.002600 0.330300 0.907600 2.532170 -0.732229 1.327441 18.092492 5.685203 -9.492415 -2.044690 -10.135417 30.294927 -1.579641 4.450369 -5.516147 -0.040900 -1.306000 3.591200 -1.620355 -1.854167 7.072953 1.064206 -2.442745 0.505326 1.149881 -1.341347 -3.891245 -18.581105 -16.657564 1.953864 11.990397 -22.284317 8.983947 5.725400 -11.193100 9.657400 -7.073814 -0.385739 -1.266482 -81.307228 2.091541 16.639159 13.610057 -19.619221 -2.879567 -1.489351 -2.721259 1.523338 18.804879 22.110120 8.794200 -7.125000 0.000000 0.000000 -10.090400 55.923500 -2.723900 5.343919 2.027146 -0.533532 83.464674 -4.823380 4.055813 -10.927991 16.655787 -1.748934 0.520823 -0.394073 12.193943 -16.711124 8.921667 -2.845500 7.125000 0.000000 0.000000 6.900400 -20.404400 4.091000 
-14.815586 17.871465 -8.660378 -0.580075 31.181753 1.293058 -4.124406 1.022542 2.577792 -15.103418 -4.825031 -10.726457 -0.057107 7.996261 23.734017 1.009905 -4.131031 -2.184413 0.001900 0.280500 0.770700 2.532683 -0.727672 1.331047 18.071513 5.545568 -9.607258 -2.043409 -10.136758 30.296035 -1.519774 4.140947 -5.645739 -0.027200 -1.064100 2.925200 -1.611899 -1.861403 7.280367 1.087169 -2.451326 0.508430 1.209296 -1.343624 -3.970813 -18.597745 -16.440746 1.657652 12.032993 -21.946727 9.210280 5.783100 -11.016600 9.756400 -7.062277 -0.393663 -1.279546 -81.431393 2.057682 17.196142 13.751695 -19.805845 -2.944480 -1.467002 -2.719878 1.399066 18.707186 22.032924 8.715300 -7.125000 0.000000 0.000000 -10.173300 55.819300 -2.720800 5.339963 2.050377 -0.528849 83.318537 -4.478677 4.580143 -11.040414 16.811779 -1.784221 0.521920 -0.370361 11.970581 -16.620052 8.533476 -2.704000 7.125000 0.000000 0.000000 6.974300 -20.833500 4.067600 
